<svg width="297" height="297" viewBox="0 0 297 297" fill="none" xmlns="http://www.w3.org/2000/svg">
<rect width="9" height="9" fill="#FDC617" fill-opacity="0.5"/>
<rect x="288" width="9" height="9" fill="#FDC617" fill-opacity="0.5"/>
<rect x="144" width="9" height="9" fill="#FDC617" fill-opacity="0.5"/>
<rect y="108" width="9" height="9" fill="#FDC617" fill-opacity="0.5"/>
<rect x="288" y="108" width="9" height="9" fill="#FDC617" fill-opacity="0.5"/>
<rect x="144" y="108" width="9" height="9" fill="#FDC617" fill-opacity="0.5"/>
<rect x="72" width="9" height="9" fill="#FDC617" fill-opacity="0.5"/>
<rect x="216" width="9" height="9" fill="#FDC617" fill-opacity="0.5"/>
<rect x="216" y="108" width="9" height="9" fill="#FDC617" fill-opacity="0.5"/>
<rect x="72" y="108" width="9" height="9" fill="#FDC617" fill-opacity="0.5"/>
<rect x="72" y="54" width="9" height="9" fill="#FDC617" fill-opacity="0.5"/>
<rect x="216" y="54" width="9" height="9" fill="#FDC617" fill-opacity="0.5"/>
<rect x="72" y="162" width="9" height="9" fill="#FDC617" fill-opacity="0.5"/>
<rect x="216" y="162" width="9" height="9" fill="#FDC617" fill-opacity="0.5"/>
<rect x="72" y="234" width="9" height="9" fill="#FDC617" fill-opacity="0.5"/>
<rect x="216" y="234" width="9" height="9" fill="#FDC617" fill-opacity="0.5"/>
<rect y="54" width="9" height="9" fill="#FDC617" fill-opacity="0.5"/>
<rect x="288" y="54" width="9" height="9" fill="#FDC617" fill-opacity="0.5"/>
<rect x="144" y="54" width="9" height="9" fill="#FDC617" fill-opacity="0.5"/>
<rect y="162" width="9" height="9" fill="#FDC617" fill-opacity="0.5"/>
<rect x="288" y="162" width="9" height="9" fill="#FDC617" fill-opacity="0.5"/>
<rect x="144" y="162" width="9" height="9" fill="#FDC617" fill-opacity="0.5"/>
<rect y="234" width="9" height="9" fill="#FDC617" fill-opacity="0.5"/>
<rect x="288" y="234" width="9" height="9" fill="#FDC617" fill-opacity="0.5"/>
<rect x="144" y="234" width="9" height="9" fill="#FDC617" fill-opacity="0.5"/>
<rect y="18" width="9" height="9" fill="#FDC617" fill-opacity="0.5"/>
<rect x="288" y="18" width="9" height="9" fill="#FDC617" fill-opacity="0.5"/>
<rect x="144" y="18" width="9" height="9" fill="#FDC617" fill-opacity="0.5"/>
<rect y="126" width="9" height="9" fill="#FDC617" fill-opacity="0.5"/>
<rect x="288" y="126" width="9" height="9" fill="#FDC617" fill-opacity="0.5"/>
<rect x="144" y="126" width="9" height="9" fill="#FDC617" fill-opacity="0.5"/>
<rect x="72" y="18" width="9" height="9" fill="#FDC617" fill-opacity="0.5"/>
<rect x="216" y="18" width="9" height="9" fill="#FDC617" fill-opacity="0.5"/>
<rect x="72" y="126" width="9" height="9" fill="#FDC617" fill-opacity="0.5"/>
<rect x="216" y="126" width="9" height="9" fill="#FDC617" fill-opacity="0.5"/>
<rect x="72" y="72" width="9" height="9" fill="#FDC617" fill-opacity="0.5"/>
<rect x="216" y="72" width="9" height="9" fill="#FDC617" fill-opacity="0.5"/>
<rect x="72" y="180" width="9" height="9" fill="#FDC617" fill-opacity="0.5"/>
<rect x="216" y="180" width="9" height="9" fill="#FDC617" fill-opacity="0.5"/>
<rect x="72" y="252" width="9" height="9" fill="#FDC617" fill-opacity="0.5"/>
<rect x="72" y="270" width="9" height="9" fill="#FDC617" fill-opacity="0.5"/>
<rect x="72" y="288" width="9" height="9" fill="#FDC617" fill-opacity="0.5"/>
<rect x="216" y="252" width="9" height="9" fill="#FDC617" fill-opacity="0.5"/>
<rect x="216" y="270" width="9" height="9" fill="#FDC617" fill-opacity="0.5"/>
<rect x="216" y="288" width="9" height="9" fill="#FDC617" fill-opacity="0.5"/>
<rect y="72" width="9" height="9" fill="#FDC617" fill-opacity="0.5"/>
<rect x="288" y="72" width="9" height="9" fill="#FDC617" fill-opacity="0.5"/>
<rect x="144" y="72" width="9" height="9" fill="#FDC617" fill-opacity="0.5"/>
<rect y="180" width="9" height="9" fill="#FDC617" fill-opacity="0.5"/>
<rect x="288" y="180" width="9" height="9" fill="#FDC617" fill-opacity="0.5"/>
<rect y="252" width="9" height="9" fill="#FDC617" fill-opacity="0.5"/>
<rect x="144" y="180" width="9" height="9" fill="#FDC617" fill-opacity="0.5"/>
<rect y="270" width="9" height="9" fill="#FDC617" fill-opacity="0.5"/>
<rect x="288" y="252" width="9" height="9" fill="#FDC617" fill-opacity="0.5"/>
<rect y="288" width="9" height="9" fill="#FDC617" fill-opacity="0.5"/>
<rect x="288" y="270" width="9" height="9" fill="#FDC617" fill-opacity="0.5"/>
<rect x="288" y="288" width="9" height="9" fill="#FDC617" fill-opacity="0.5"/>
<rect x="144" y="252" width="9" height="9" fill="#FDC617" fill-opacity="0.5"/>
<rect x="144" y="288" width="9" height="9" fill="#FDC617" fill-opacity="0.5"/>
<rect x="144" y="270" width="9" height="9" fill="#FDC617" fill-opacity="0.5"/>
<rect y="36" width="9" height="9" fill="#FDC617" fill-opacity="0.5"/>
<rect x="144" y="36" width="9" height="9" fill="#FDC617" fill-opacity="0.5"/>
<rect x="288" y="36" width="9" height="9" fill="#FDC617" fill-opacity="0.5"/>
<rect x="288" y="144" width="9" height="9" fill="#FDC617" fill-opacity="0.5"/>
<rect y="144" width="9" height="9" fill="#FDC617" fill-opacity="0.5"/>
<rect x="144" y="144" width="9" height="9" fill="#FDC617" fill-opacity="0.5"/>
<rect x="288" y="216" width="9" height="9" fill="#FDC617" fill-opacity="0.5"/>
<rect y="216" width="9" height="9" fill="#FDC617" fill-opacity="0.5"/>
<rect x="144" y="216" width="9" height="9" fill="#FDC617" fill-opacity="0.5"/>
<rect x="216" y="36" width="9" height="9" fill="#FDC617" fill-opacity="0.5"/>
<rect x="72" y="36" width="9" height="9" fill="#FDC617" fill-opacity="0.5"/>
<rect x="216" y="144" width="9" height="9" fill="#FDC617" fill-opacity="0.5"/>
<rect x="72" y="144" width="9" height="9" fill="#FDC617" fill-opacity="0.5"/>
<rect x="72" y="216" width="9" height="9" fill="#FDC617" fill-opacity="0.5"/>
<rect x="72" y="90" width="9" height="9" fill="#FDC617" fill-opacity="0.5"/>
<rect x="216" y="216" width="9" height="9" fill="#FDC617" fill-opacity="0.5"/>
<rect x="216" y="90" width="9" height="9" fill="#FDC617" fill-opacity="0.5"/>
<rect x="216" y="198" width="9" height="9" fill="#FDC617" fill-opacity="0.5"/>
<rect x="72" y="198" width="9" height="9" fill="#FDC617" fill-opacity="0.5"/>
<rect x="288" y="90" width="9" height="9" fill="#FDC617" fill-opacity="0.5"/>
<rect y="90" width="9" height="9" fill="#FDC617" fill-opacity="0.5"/>
<rect x="144" y="90" width="9" height="9" fill="#FDC617" fill-opacity="0.5"/>
<rect y="198" width="9" height="9" fill="#FDC617" fill-opacity="0.5"/>
<rect x="288" y="198" width="9" height="9" fill="#FDC617" fill-opacity="0.5"/>
<rect x="144" y="198" width="9" height="9" fill="#FDC617" fill-opacity="0.5"/>
<rect x="36" y="36" width="9" height="9" fill="#FDC617" fill-opacity="0.5"/>
<rect x="180" y="36" width="9" height="9" fill="#FDC617" fill-opacity="0.5"/>
<rect x="36" y="144" width="9" height="9" fill="#FDC617" fill-opacity="0.5"/>
<rect x="180" y="144" width="9" height="9" fill="#FDC617" fill-opacity="0.5"/>
<rect x="36" y="216" width="9" height="9" fill="#FDC617" fill-opacity="0.5"/>
<rect x="180" y="216" width="9" height="9" fill="#FDC617" fill-opacity="0.5"/>
<rect x="108" y="36" width="9" height="9" fill="#FDC617" fill-opacity="0.5"/>
<rect x="252" y="36" width="9" height="9" fill="#FDC617" fill-opacity="0.5"/>
<rect x="108" y="144" width="9" height="9" fill="#FDC617" fill-opacity="0.5"/>
<rect x="252" y="144" width="9" height="9" fill="#FDC617" fill-opacity="0.5"/>
<rect x="108" y="216" width="9" height="9" fill="#FDC617" fill-opacity="0.5"/>
<rect x="252" y="216" width="9" height="9" fill="#FDC617" fill-opacity="0.5"/>
<rect x="108" y="90" width="9" height="9" fill="#FDC617" fill-opacity="0.5"/>
<rect x="252" y="90" width="9" height="9" fill="#FDC617" fill-opacity="0.5"/>
<rect x="108" y="198" width="9" height="9" fill="#FDC617" fill-opacity="0.5"/>
<rect x="252" y="198" width="9" height="9" fill="#FDC617" fill-opacity="0.5"/>
<rect x="36" y="90" width="9" height="9" fill="#FDC617" fill-opacity="0.5"/>
<rect x="180" y="90" width="9" height="9" fill="#FDC617" fill-opacity="0.5"/>
<rect x="36" y="198" width="9" height="9" fill="#FDC617" fill-opacity="0.5"/>
<rect x="180" y="198" width="9" height="9" fill="#FDC617" fill-opacity="0.5"/>
<rect x="36" y="18" width="9" height="9" fill="#FDC617" fill-opacity="0.5"/>
<rect x="180" y="18" width="9" height="9" fill="#FDC617" fill-opacity="0.5"/>
<rect x="36" y="126" width="9" height="9" fill="#FDC617" fill-opacity="0.5"/>
<rect x="180" y="126" width="9" height="9" fill="#FDC617" fill-opacity="0.5"/>
<rect x="108" y="18" width="9" height="9" fill="#FDC617" fill-opacity="0.5"/>
<rect x="252" y="18" width="9" height="9" fill="#FDC617" fill-opacity="0.5"/>
<rect x="108" y="126" width="9" height="9" fill="#FDC617" fill-opacity="0.5"/>
<rect x="252" y="126" width="9" height="9" fill="#FDC617" fill-opacity="0.5"/>
<rect x="108" y="72" width="9" height="9" fill="#FDC617" fill-opacity="0.5"/>
<rect x="252" y="72" width="9" height="9" fill="#FDC617" fill-opacity="0.5"/>
<rect x="108" y="180" width="9" height="9" fill="#FDC617" fill-opacity="0.5"/>
<rect x="252" y="180" width="9" height="9" fill="#FDC617" fill-opacity="0.5"/>
<rect x="108" y="252" width="9" height="9" fill="#FDC617" fill-opacity="0.5"/>
<rect x="108" y="270" width="9" height="9" fill="#FDC617" fill-opacity="0.5"/>
<rect x="108" y="288" width="9" height="9" fill="#FDC617" fill-opacity="0.5"/>
<rect x="252" y="252" width="9" height="9" fill="#FDC617" fill-opacity="0.5"/>
<rect x="252" y="270" width="9" height="9" fill="#FDC617" fill-opacity="0.5"/>
<rect x="252" y="288" width="9" height="9" fill="#FDC617" fill-opacity="0.5"/>
<rect x="36" y="72" width="9" height="9" fill="#FDC617" fill-opacity="0.5"/>
<rect x="180" y="72" width="9" height="9" fill="#FDC617" fill-opacity="0.5"/>
<rect x="36" y="180" width="9" height="9" fill="#FDC617" fill-opacity="0.5"/>
<rect x="180" y="180" width="9" height="9" fill="#FDC617" fill-opacity="0.5"/>
<rect x="36" y="252" width="9" height="9" fill="#FDC617" fill-opacity="0.5"/>
<rect x="36" y="270" width="9" height="9" fill="#FDC617" fill-opacity="0.5"/>
<rect x="36" y="288" width="9" height="9" fill="#FDC617" fill-opacity="0.5"/>
<rect x="180" y="252" width="9" height="9" fill="#FDC617" fill-opacity="0.5"/>
<rect x="180" y="270" width="9" height="9" fill="#FDC617" fill-opacity="0.5"/>
<rect x="180" y="288" width="9" height="9" fill="#FDC617" fill-opacity="0.5"/>
<rect x="36" width="9" height="9" fill="#FDC617" fill-opacity="0.5"/>
<rect x="180" width="9" height="9" fill="#FDC617" fill-opacity="0.5"/>
<rect x="36" y="108" width="9" height="9" fill="#FDC617" fill-opacity="0.5"/>
<rect x="180" y="108" width="9" height="9" fill="#FDC617" fill-opacity="0.5"/>
<rect x="108" width="9" height="9" fill="#FDC617" fill-opacity="0.5"/>
<rect x="252" width="9" height="9" fill="#FDC617" fill-opacity="0.5"/>
<rect x="108" y="108" width="9" height="9" fill="#FDC617" fill-opacity="0.5"/>
<rect x="252" y="108" width="9" height="9" fill="#FDC617" fill-opacity="0.5"/>
<rect x="108" y="54" width="9" height="9" fill="#FDC617" fill-opacity="0.5"/>
<rect x="252" y="54" width="9" height="9" fill="#FDC617" fill-opacity="0.5"/>
<rect x="108" y="162" width="9" height="9" fill="#FDC617" fill-opacity="0.5"/>
<rect x="252" y="162" width="9" height="9" fill="#FDC617" fill-opacity="0.5"/>
<rect x="108" y="234" width="9" height="9" fill="#FDC617" fill-opacity="0.5"/>
<rect x="252" y="234" width="9" height="9" fill="#FDC617" fill-opacity="0.5"/>
<rect x="36" y="54" width="9" height="9" fill="#FDC617" fill-opacity="0.5"/>
<rect x="180" y="54" width="9" height="9" fill="#FDC617" fill-opacity="0.5"/>
<rect x="36" y="162" width="9" height="9" fill="#FDC617" fill-opacity="0.5"/>
<rect x="180" y="162" width="9" height="9" fill="#FDC617" fill-opacity="0.5"/>
<rect x="36" y="234" width="9" height="9" fill="#FDC617" fill-opacity="0.5"/>
<rect x="180" y="234" width="9" height="9" fill="#FDC617" fill-opacity="0.5"/>
<rect x="18" width="9" height="9" fill="#FDC617" fill-opacity="0.5"/>
<rect x="162" width="9" height="9" fill="#FDC617" fill-opacity="0.5"/>
<rect x="18" y="108" width="9" height="9" fill="#FDC617" fill-opacity="0.5"/>
<rect x="162" y="108" width="9" height="9" fill="#FDC617" fill-opacity="0.5"/>
<rect x="90" width="9" height="9" fill="#FDC617" fill-opacity="0.5"/>
<rect x="234" width="9" height="9" fill="#FDC617" fill-opacity="0.5"/>
<rect x="90" y="108" width="9" height="9" fill="#FDC617" fill-opacity="0.5"/>
<rect x="234" y="108" width="9" height="9" fill="#FDC617" fill-opacity="0.5"/>
<rect x="90" y="54" width="9" height="9" fill="#FDC617" fill-opacity="0.5"/>
<rect x="234" y="54" width="9" height="9" fill="#FDC617" fill-opacity="0.5"/>
<rect x="90" y="162" width="9" height="9" fill="#FDC617" fill-opacity="0.5"/>
<rect x="234" y="162" width="9" height="9" fill="#FDC617" fill-opacity="0.5"/>
<rect x="90" y="234" width="9" height="9" fill="#FDC617" fill-opacity="0.5"/>
<rect x="234" y="234" width="9" height="9" fill="#FDC617" fill-opacity="0.5"/>
<rect x="18" y="54" width="9" height="9" fill="#FDC617" fill-opacity="0.5"/>
<rect x="162" y="54" width="9" height="9" fill="#FDC617" fill-opacity="0.5"/>
<rect x="18" y="162" width="9" height="9" fill="#FDC617" fill-opacity="0.5"/>
<rect x="162" y="162" width="9" height="9" fill="#FDC617" fill-opacity="0.5"/>
<rect x="18" y="234" width="9" height="9" fill="#FDC617" fill-opacity="0.5"/>
<rect x="162" y="234" width="9" height="9" fill="#FDC617" fill-opacity="0.5"/>
<rect x="18" y="18" width="9" height="9" fill="#FDC617" fill-opacity="0.5"/>
<rect x="162" y="18" width="9" height="9" fill="#FDC617" fill-opacity="0.5"/>
<rect x="18" y="126" width="9" height="9" fill="#FDC617" fill-opacity="0.5"/>
<rect x="162" y="126" width="9" height="9" fill="#FDC617" fill-opacity="0.5"/>
<rect x="90" y="18" width="9" height="9" fill="#FDC617" fill-opacity="0.5"/>
<rect x="234" y="18" width="9" height="9" fill="#FDC617" fill-opacity="0.5"/>
<rect x="90" y="126" width="9" height="9" fill="#FDC617" fill-opacity="0.5"/>
<rect x="234" y="126" width="9" height="9" fill="#FDC617" fill-opacity="0.5"/>
<rect x="90" y="72" width="9" height="9" fill="#FDC617" fill-opacity="0.5"/>
<rect x="234" y="72" width="9" height="9" fill="#FDC617" fill-opacity="0.5"/>
<rect x="90" y="180" width="9" height="9" fill="#FDC617" fill-opacity="0.5"/>
<rect x="234" y="180" width="9" height="9" fill="#FDC617" fill-opacity="0.5"/>
<rect x="90" y="252" width="9" height="9" fill="#FDC617" fill-opacity="0.5"/>
<rect x="90" y="270" width="9" height="9" fill="#FDC617" fill-opacity="0.5"/>
<rect x="234" y="252" width="9" height="9" fill="#FDC617" fill-opacity="0.5"/>
<rect x="90" y="288" width="9" height="9" fill="#FDC617" fill-opacity="0.5"/>
<rect x="234" y="270" width="9" height="9" fill="#FDC617" fill-opacity="0.5"/>
<rect x="234" y="288" width="9" height="9" fill="#FDC617" fill-opacity="0.5"/>
<rect x="18" y="72" width="9" height="9" fill="#FDC617" fill-opacity="0.5"/>
<rect x="162" y="72" width="9" height="9" fill="#FDC617" fill-opacity="0.5"/>
<rect x="18" y="180" width="9" height="9" fill="#FDC617" fill-opacity="0.5"/>
<rect x="162" y="180" width="9" height="9" fill="#FDC617" fill-opacity="0.5"/>
<rect x="18" y="252" width="9" height="9" fill="#FDC617" fill-opacity="0.5"/>
<rect x="18" y="270" width="9" height="9" fill="#FDC617" fill-opacity="0.5"/>
<rect x="18" y="288" width="9" height="9" fill="#FDC617" fill-opacity="0.5"/>
<rect x="162" y="252" width="9" height="9" fill="#FDC617" fill-opacity="0.5"/>
<rect x="162" y="270" width="9" height="9" fill="#FDC617" fill-opacity="0.5"/>
<rect x="162" y="288" width="9" height="9" fill="#FDC617" fill-opacity="0.5"/>
<rect x="18" y="36" width="9" height="9" fill="#FDC617" fill-opacity="0.5"/>
<rect x="162" y="36" width="9" height="9" fill="#FDC617" fill-opacity="0.5"/>
<rect x="18" y="144" width="9" height="9" fill="#FDC617" fill-opacity="0.5"/>
<rect x="162" y="144" width="9" height="9" fill="#FDC617" fill-opacity="0.5"/>
<rect x="18" y="216" width="9" height="9" fill="#FDC617" fill-opacity="0.5"/>
<rect x="162" y="216" width="9" height="9" fill="#FDC617" fill-opacity="0.5"/>
<rect x="90" y="36" width="9" height="9" fill="#FDC617" fill-opacity="0.5"/>
<rect x="234" y="36" width="9" height="9" fill="#FDC617" fill-opacity="0.5"/>
<rect x="90" y="144" width="9" height="9" fill="#FDC617" fill-opacity="0.5"/>
<rect x="234" y="144" width="9" height="9" fill="#FDC617" fill-opacity="0.5"/>
<rect x="90" y="216" width="9" height="9" fill="#FDC617" fill-opacity="0.5"/>
<rect x="234" y="216" width="9" height="9" fill="#FDC617" fill-opacity="0.5"/>
<rect x="90" y="90" width="9" height="9" fill="#FDC617" fill-opacity="0.5"/>
<rect x="234" y="90" width="9" height="9" fill="#FDC617" fill-opacity="0.5"/>
<rect x="90" y="198" width="9" height="9" fill="#FDC617" fill-opacity="0.5"/>
<rect x="234" y="198" width="9" height="9" fill="#FDC617" fill-opacity="0.5"/>
<rect x="18" y="90" width="9" height="9" fill="#FDC617" fill-opacity="0.5"/>
<rect x="162" y="90" width="9" height="9" fill="#FDC617" fill-opacity="0.5"/>
<rect x="18" y="198" width="9" height="9" fill="#FDC617" fill-opacity="0.5"/>
<rect x="162" y="198" width="9" height="9" fill="#FDC617" fill-opacity="0.5"/>
<rect x="54" y="36" width="9" height="9" fill="#FDC617" fill-opacity="0.5"/>
<rect x="198" y="36" width="9" height="9" fill="#FDC617" fill-opacity="0.5"/>
<rect x="54" y="144" width="9" height="9" fill="#FDC617" fill-opacity="0.5"/>
<rect x="198" y="144" width="9" height="9" fill="#FDC617" fill-opacity="0.5"/>
<rect x="54" y="216" width="9" height="9" fill="#FDC617" fill-opacity="0.5"/>
<rect x="198" y="216" width="9" height="9" fill="#FDC617" fill-opacity="0.5"/>
<rect x="126" y="36" width="9" height="9" fill="#FDC617" fill-opacity="0.5"/>
<rect x="270" y="36" width="9" height="9" fill="#FDC617" fill-opacity="0.5"/>
<rect x="126" y="144" width="9" height="9" fill="#FDC617" fill-opacity="0.5"/>
<rect x="270" y="144" width="9" height="9" fill="#FDC617" fill-opacity="0.5"/>
<rect x="126" y="216" width="9" height="9" fill="#FDC617" fill-opacity="0.5"/>
<rect x="270" y="216" width="9" height="9" fill="#FDC617" fill-opacity="0.5"/>
<rect x="126" y="90" width="9" height="9" fill="#FDC617" fill-opacity="0.5"/>
<rect x="270" y="90" width="9" height="9" fill="#FDC617" fill-opacity="0.5"/>
<rect x="126" y="198" width="9" height="9" fill="#FDC617" fill-opacity="0.5"/>
<rect x="270" y="198" width="9" height="9" fill="#FDC617" fill-opacity="0.5"/>
<rect x="54" y="90" width="9" height="9" fill="#FDC617" fill-opacity="0.5"/>
<rect x="198" y="90" width="9" height="9" fill="#FDC617" fill-opacity="0.5"/>
<rect x="54" y="198" width="9" height="9" fill="#FDC617" fill-opacity="0.5"/>
<rect x="198" y="198" width="9" height="9" fill="#FDC617" fill-opacity="0.5"/>
<rect x="54" y="18" width="9" height="9" fill="#FDC617" fill-opacity="0.5"/>
<rect x="198" y="18" width="9" height="9" fill="#FDC617" fill-opacity="0.5"/>
<rect x="54" y="126" width="9" height="9" fill="#FDC617" fill-opacity="0.5"/>
<rect x="198" y="126" width="9" height="9" fill="#FDC617" fill-opacity="0.5"/>
<rect x="126" y="18" width="9" height="9" fill="#FDC617" fill-opacity="0.5"/>
<rect x="270" y="18" width="9" height="9" fill="#FDC617" fill-opacity="0.5"/>
<rect x="126" y="126" width="9" height="9" fill="#FDC617" fill-opacity="0.5"/>
<rect x="270" y="126" width="9" height="9" fill="#FDC617" fill-opacity="0.5"/>
<rect x="126" y="72" width="9" height="9" fill="#FDC617" fill-opacity="0.5"/>
<rect x="270" y="72" width="9" height="9" fill="#FDC617" fill-opacity="0.5"/>
<rect x="126" y="180" width="9" height="9" fill="#FDC617" fill-opacity="0.5"/>
<rect x="270" y="180" width="9" height="9" fill="#FDC617" fill-opacity="0.5"/>
<rect x="126" y="252" width="9" height="9" fill="#FDC617" fill-opacity="0.5"/>
<rect x="126" y="270" width="9" height="9" fill="#FDC617" fill-opacity="0.5"/>
<rect x="126" y="288" width="9" height="9" fill="#FDC617" fill-opacity="0.5"/>
<rect x="270" y="252" width="9" height="9" fill="#FDC617" fill-opacity="0.5"/>
<rect x="270" y="270" width="9" height="9" fill="#FDC617" fill-opacity="0.5"/>
<rect x="270" y="288" width="9" height="9" fill="#FDC617" fill-opacity="0.5"/>
<rect x="54" y="72" width="9" height="9" fill="#FDC617" fill-opacity="0.5"/>
<rect x="198" y="72" width="9" height="9" fill="#FDC617" fill-opacity="0.5"/>
<rect x="54" y="180" width="9" height="9" fill="#FDC617" fill-opacity="0.5"/>
<rect x="198" y="180" width="9" height="9" fill="#FDC617" fill-opacity="0.5"/>
<rect x="54" y="252" width="9" height="9" fill="#FDC617" fill-opacity="0.5"/>
<rect x="54" y="270" width="9" height="9" fill="#FDC617" fill-opacity="0.5"/>
<rect x="54" y="288" width="9" height="9" fill="#FDC617" fill-opacity="0.5"/>
<rect x="198" y="252" width="9" height="9" fill="#FDC617" fill-opacity="0.5"/>
<rect x="198" y="270" width="9" height="9" fill="#FDC617" fill-opacity="0.5"/>
<rect x="198" y="288" width="9" height="9" fill="#FDC617" fill-opacity="0.5"/>
<rect x="54" width="9" height="9" fill="#FDC617" fill-opacity="0.5"/>
<rect x="198" width="9" height="9" fill="#FDC617" fill-opacity="0.5"/>
<rect x="54" y="108" width="9" height="9" fill="#FDC617" fill-opacity="0.5"/>
<rect x="198" y="108" width="9" height="9" fill="#FDC617" fill-opacity="0.5"/>
<rect x="126" width="9" height="9" fill="#FDC617" fill-opacity="0.5"/>
<rect x="270" width="9" height="9" fill="#FDC617" fill-opacity="0.5"/>
<rect x="126" y="108" width="9" height="9" fill="#FDC617" fill-opacity="0.5"/>
<rect x="270" y="108" width="9" height="9" fill="#FDC617" fill-opacity="0.5"/>
<rect x="126" y="54" width="9" height="9" fill="#FDC617" fill-opacity="0.5"/>
<rect x="270" y="54" width="9" height="9" fill="#FDC617" fill-opacity="0.5"/>
<rect x="126" y="162" width="9" height="9" fill="#FDC617" fill-opacity="0.5"/>
<rect x="270" y="162" width="9" height="9" fill="#FDC617" fill-opacity="0.5"/>
<rect x="126" y="234" width="9" height="9" fill="#FDC617" fill-opacity="0.5"/>
<rect x="270" y="234" width="9" height="9" fill="#FDC617" fill-opacity="0.5"/>
<rect x="54" y="54" width="9" height="9" fill="#FDC617" fill-opacity="0.5"/>
<rect x="198" y="54" width="9" height="9" fill="#FDC617" fill-opacity="0.5"/>
<rect x="54" y="162" width="9" height="9" fill="#FDC617" fill-opacity="0.5"/>
<rect x="198" y="162" width="9" height="9" fill="#FDC617" fill-opacity="0.5"/>
<rect x="54" y="234" width="9" height="9" fill="#FDC617" fill-opacity="0.5"/>
<rect x="198" y="234" width="9" height="9" fill="#FDC617" fill-opacity="0.5"/>
</svg>
